<?xml version="1.0" encoding="UTF-8"?>
<svg version="1.1" xmlns="http://www.w3.org/2000/svg" width="1024" height="1024">
<path d="M0 0 C337.92 0 675.84 0 1024 0 C1024 337.92 1024 675.84 1024 1024 C686.08 1024 348.16 1024 0 1024 C0 686.08 0 348.16 0 0 Z " fill="#EF4610" transform="translate(0,0)"/>
<path d="M0 0 C5.93766842 5.2900886 11.20174325 10.95460611 15 18 C15 18.66 15 19.32 15 20 C17.67260454 17.42015396 19.98407574 14.799364 22.1875 11.8125 C35.26172933 -5.04855686 53.21815087 -14.92700716 74.4375 -17.625 C75.95713148 -17.76384958 77.47806493 -17.8892179 79 -18 C79.65097656 -18.05414063 80.30195313 -18.10828125 80.97265625 -18.1640625 C91.72071723 -18.61966431 104.11561935 -16.18991087 114 -12 C114.78246094 -11.67515625 115.56492187 -11.3503125 116.37109375 -11.015625 C133.65592095 -3.14172556 145.4613551 11.81587494 152.6875 29 C158.87587603 45.93123344 160.15569752 63.76681499 160.12939453 81.62329102 C160.13075187 83.17977438 160.13253367 84.73625742 160.13470459 86.29273987 C160.13923592 90.49043617 160.13750808 94.68810771 160.1343255 98.88580441 C160.13178366 103.28421674 160.13414414 107.68262702 160.13571167 112.08103943 C160.13752632 119.45547871 160.13514376 126.82990795 160.13037109 134.2043457 C160.12491165 142.73873397 160.12670611 151.27309841 160.1321975 159.80748612 C160.13672708 167.14012881 160.13738049 174.47276431 160.13475883 181.80540794 C160.13319753 186.18326486 160.13299865 190.56111055 160.13629532 194.93896675 C160.13917239 199.0454553 160.13720143 203.15191287 160.13140106 207.25839806 C160.13007335 208.76895216 160.13046776 210.27950886 160.13266373 211.79006195 C160.13537432 213.84295563 160.13138122 215.89585497 160.12698364 217.94874573 C160.12660662 219.09998208 160.12622959 220.25121843 160.12584114 221.43734074 C160 224 160 224 159 225 C157.07238183 225.09920863 155.14110646 225.12799365 153.2109375 225.12939453 C151.9729541 225.13254669 150.7349707 225.13569885 149.45947266 225.13894653 C148.09798141 225.13715675 146.73649049 225.1351058 145.375 225.1328125 C143.98876936 225.13348559 142.60253883 225.13445566 141.21630859 225.13571167 C138.30760578 225.1371884 135.39893363 225.1350349 132.49023438 225.13037109 C128.75403402 225.12467381 125.01790548 225.12795294 121.28170776 225.13394356 C118.41820734 225.13754985 115.55472407 225.13641027 112.69122314 225.13381577 C111.31325268 225.13314668 109.93528068 225.13397426 108.55731201 225.13629532 C106.63456246 225.13882292 104.71180748 225.13429024 102.7890625 225.12939453 C101.14478271 225.12820114 101.14478271 225.12820114 99.46728516 225.12698364 C97 225 97 225 96 224 C95.89753776 221.97232636 95.86644809 219.94103772 95.86196899 217.91078186 C95.85914771 217.26769827 95.85632643 216.62461468 95.85341966 215.9620437 C95.84503775 213.79117147 95.84373232 211.62035001 95.84228516 209.44946289 C95.83761927 207.89905655 95.83247608 206.34865158 95.82688904 204.79824829 C95.81558545 201.45009044 95.80716194 198.1019416 95.80076981 194.75377083 C95.79010372 189.45393166 95.76985976 184.15415667 95.74765015 178.85435486 C95.68568833 163.78013062 95.63179466 148.70590887 95.59863281 133.6315918 C95.58025251 125.3131512 95.55126803 116.9948169 95.5106281 108.67645448 C95.48960379 104.27523837 95.47410745 99.874156 95.47182083 95.47288704 C95.46966378 91.32534151 95.45368733 87.17807374 95.42743111 83.03061295 C95.42027493 81.51418658 95.41811913 79.99772641 95.42153358 78.481287 C95.44505953 66.03824096 93.99323448 55.01312311 86 45 C78.39507088 38.50831448 71.47196055 36.50296689 61.56640625 36.69921875 C51.65100726 37.53545722 44.37717974 42.49932383 38 50 C29.39034924 63.28669788 27.54762163 77.49631666 27.56762695 93.08349609 C27.55858268 94.5338269 27.54824907 95.98415014 27.53674316 97.4344635 C27.50945932 101.32402722 27.49992819 105.21344482 27.49388909 109.10309172 C27.48442986 113.18569815 27.45822117 117.26819857 27.43388367 121.35073853 C27.39042072 129.06030705 27.36175027 136.76985477 27.33856028 144.47950804 C27.31139948 153.26570066 27.26749526 162.05178556 27.22227156 170.83790088 C27.12971512 188.89187682 27.0579025 206.94588129 27 225 C18.93347826 225.02312737 10.86697028 225.04091709 2.80042362 225.05181217 C-0.94483037 225.05704014 -4.69006176 225.06413622 -8.43530273 225.07543945 C-12.04681687 225.08627141 -15.65830921 225.09227749 -19.26983833 225.09487724 C-20.65060329 225.09673094 -22.031367 225.10035049 -23.41212273 225.10573006 C-25.33975952 225.11294447 -27.26741807 225.11340809 -29.19506836 225.11352539 C-30.84387245 225.11685631 -30.84387245 225.11685631 -32.52598572 225.12025452 C-35 225 -35 225 -36 224 C-36.10461827 221.99547496 -36.13800323 219.98722235 -36.14476013 217.97998047 C-36.15510788 216.01589485 -36.15510788 216.01589485 -36.16566467 214.01213074 C-36.16837973 212.5471498 -36.17101685 211.08216871 -36.17358398 209.6171875 C-36.17988581 208.08486237 -36.18665119 206.55253909 -36.19384766 205.0202179 C-36.2085488 201.71134828 -36.22026121 198.40248589 -36.22979546 195.09359741 C-36.24522335 189.85704214 -36.26917537 184.62054777 -36.29469299 179.3840332 C-36.36595115 164.48994804 -36.42556155 149.5958271 -36.47680664 134.70166016 C-36.50516137 126.48249933 -36.54057639 118.26339822 -36.58346039 110.04430008 C-36.61016629 104.84424456 -36.62811311 99.64425665 -36.63949764 94.44414616 C-36.64866176 91.19762173 -36.66604245 87.95117878 -36.68567657 84.70470238 C-36.69311394 83.2055916 -36.69723082 81.70645986 -36.69767189 80.2073307 C-36.70492408 66.56252158 -38.03387746 54.2508689 -48 44 C-56.2460678 37.91741666 -63.77796582 36.01321947 -74 37 C-83.32784151 38.98091258 -90.10920121 43.78956486 -95.78515625 51.390625 C-101.90161102 60.94852484 -104.09162116 71.22443934 -104.15821838 82.49839783 C-104.17290161 84.39339523 -104.17290161 84.39339523 -104.18788147 86.32667542 C-104.19378407 87.70858727 -104.19959462 89.09049952 -104.20532227 90.47241211 C-104.21491221 91.94140898 -104.22492293 93.41040316 -104.23532104 94.87939453 C-104.2622553 98.8519765 -104.28332668 102.8245702 -104.30332303 106.79719234 C-104.32525376 110.95454318 -104.35260765 115.11185831 -104.37937927 119.2691803 C-104.42921062 127.13481393 -104.47418475 135.00046749 -104.51740164 142.86613995 C-104.5668559 151.82383378 -104.62174356 160.78149176 -104.67708123 169.73915088 C-104.79075447 188.1594006 -104.8976252 206.57968419 -105 225 C-113.06652174 225.02312737 -121.13302972 225.04091709 -129.19957638 225.05181217 C-132.94483037 225.05704014 -136.69006176 225.06413622 -140.43530273 225.07543945 C-144.04681687 225.08627141 -147.65830921 225.09227749 -151.26983833 225.09487724 C-152.65060329 225.09673094 -154.031367 225.10035049 -155.41212273 225.10573006 C-157.33975952 225.11294447 -159.26741807 225.11340809 -161.19506836 225.11352539 C-162.84387245 225.11685631 -162.84387245 225.11685631 -164.52598572 225.12025452 C-167 225 -167 225 -168 224 C-168.09801911 220.96597636 -168.12991072 217.95470393 -168.12025452 214.92027283 C-168.12110894 213.95570005 -168.12196337 212.99112726 -168.12284368 211.997325 C-168.12450142 208.73900229 -168.11897233 205.48073014 -168.11352539 202.22241211 C-168.11324356 199.89717103 -168.11340118 197.57192987 -168.1139679 195.24668884 C-168.11425602 188.9122316 -168.10835695 182.57779312 -168.10139394 176.24334025 C-168.09579342 170.30072885 -168.09477212 164.35811821 -168.09374207 158.41550452 C-168.09155124 146.64182693 -168.08489033 134.86815626 -168.07543945 123.09448242 C-168.06626612 111.65470413 -168.0591849 100.21492771 -168.05493164 88.77514648 C-168.05466892 88.07047825 -168.05440619 87.36581002 -168.05413551 86.6397882 C-168.05283051 83.10481803 -168.05156679 79.56984785 -168.05032361 76.03487766 C-168.03995004 46.68991323 -168.02151123 17.34495869 -168 -12 C-147.21 -12 -126.42 -12 -105 -12 C-104.505 -1.605 -104.505 -1.605 -104 9 C-102.72125 7.494375 -101.4425 5.98875 -100.125 4.4375 C-74.08217251 -24.41746379 -28.80554897 -24.38312029 0 0 Z " fill="#F9FCFD" transform="translate(386,411)"/>
<path d="M0 0 C22.11 0 44.22 0 67 0 C67.02202534 45.46266879 67.04049721 90.92533257 67.05106533 136.38800516 C67.05231611 141.74931139 67.05361042 147.11061761 67.05493164 152.47192383 C67.05519395 153.53931099 67.05545626 154.60669815 67.05572652 155.70643038 C67.06008365 173.01341463 67.06797143 190.32039558 67.0771528 207.62737786 C67.08648814 225.3719672 67.09205536 243.11655481 67.09408849 260.86114651 C67.09546397 271.81982038 67.09981588 282.77848492 67.10791647 293.73715592 C67.11318246 301.24114303 67.11480463 308.74512527 67.11350138 316.24911409 C67.11285777 320.58533996 67.1138781 324.92154945 67.11920547 329.25777245 C67.12403912 333.22082257 67.12433888 337.18384515 67.12089889 341.14689649 C67.12047317 342.58701298 67.12176919 344.02713113 67.12488318 345.46724432 C67.12884671 347.41200923 67.12615656 349.35678441 67.12304783 351.30155087 C67.12342755 352.38565241 67.12380727 353.46975395 67.1241985 354.58670706 C67 357 67 357 66 358 C63.98049791 358.09935148 61.95749085 358.12799508 59.93554688 358.12939453 C58.63750122 358.13254669 57.33945557 358.13569885 56.0020752 358.13894653 C54.57429979 358.13715675 53.14652469 358.1351058 51.71875 358.1328125 C50.26525862 358.13348558 48.81176736 358.13445564 47.35827637 358.13571167 C44.30833873 358.13718846 41.25843034 358.1350347 38.20849609 358.13037109 C34.29069441 358.1246738 30.37296122 358.12795291 26.45516205 358.13394356 C23.45269246 358.13754969 20.45023923 358.13641035 17.44776917 358.13381577 C16.00281262 358.13314664 14.55785461 358.13397442 13.11289978 358.13629532 C11.09675117 358.13882265 9.08059738 358.13429052 7.06445312 358.12939453 C5.34023132 358.12820114 5.34023132 358.12820114 3.58117676 358.12698364 C1 358 1 358 0 357 C-0.09764917 355.10258524 -0.1237133 353.20147657 -0.12304783 351.30155087 C-0.12503888 350.0559876 -0.12702993 348.81042433 -0.12908131 347.52711672 C-0.12622772 346.12695926 -0.12328211 344.72680199 -0.12025452 343.3266449 C-0.12069009 341.85322792 -0.12156474 340.37981102 -0.12284368 338.90639454 C-0.1250914 334.83828224 -0.1210636 330.77019602 -0.11606562 326.70208704 C-0.11176525 322.32237726 -0.11320725 317.94266906 -0.1139679 313.56295776 C-0.1144934 305.9684101 -0.1113439 298.373871 -0.10573006 290.77932549 C-0.09761855 279.79875591 -0.0950002 268.81819049 -0.09374207 257.83761824 C-0.09155099 240.0243115 -0.08488942 222.21100933 -0.07543945 204.39770508 C-0.06626676 187.08911156 -0.05918523 169.78051928 -0.05493164 152.47192383 C-0.05466892 151.40582913 -0.05440619 150.33973443 -0.05413551 149.24133383 C-0.05283051 143.89329104 -0.0515668 138.54524823 -0.05032361 133.19720542 C-0.03994928 88.79813289 -0.02151005 44.39906881 0 0 Z " fill="#F9FBFC" transform="translate(568,278)"/>
<path d="M0 0 C1.66429395 0.02430268 3.32868209 0.04278122 4.99310303 0.05574036 C9.33576603 0.10495207 13.67260935 0.23222241 18.01300049 0.37689209 C22.45708483 0.51083793 26.90212737 0.56945197 31.34765625 0.63476562 C40.04170866 0.77342756 48.73106447 0.99472585 57.421875 1.26953125 C56.72211494 4.36452051 55.99432364 6.10640767 53.8671875 8.484375 C53.3405249 9.0812915 52.8138623 9.67820801 52.27124023 10.29321289 C51.70219971 10.92477295 51.13315918 11.55633301 50.546875 12.20703125 C49.35217424 13.55798357 48.15817495 14.90955651 46.96484375 16.26171875 C46.36591309 16.93686523 45.76698242 17.61201172 45.14990234 18.30761719 C42.67786788 21.11423896 40.26496766 23.96846269 37.859375 26.83203125 C35.02855521 30.19447256 32.1884067 33.54760647 29.31640625 36.875 C28.79554443 37.47868408 28.27468262 38.08236816 27.73803711 38.7043457 C26.70661402 39.89976747 25.67488352 41.09492407 24.64282227 42.28979492 C21.1676903 46.33637009 17.87532353 50.48496237 14.7265625 54.79296875 C14.29601562 55.28023438 13.86546875 55.7675 13.421875 56.26953125 C12.761875 56.26953125 12.101875 56.26953125 11.421875 56.26953125 C11.20273437 56.79804688 10.98359375 57.3265625 10.7578125 57.87109375 C8.93115838 61.15052542 6.51092526 63.83733109 4.046875 66.64453125 C2.95693592 67.90095898 1.8670949 69.15747178 0.77734375 70.4140625 C-0.05917725 71.3743335 -0.05917725 71.3743335 -0.91259766 72.35400391 C-3.50356165 75.33387836 -6.07216765 78.33276035 -8.640625 81.33203125 C-9.13522217 81.90840332 -9.62981934 82.48477539 -10.1394043 83.07861328 C-13.0679598 86.49406448 -15.97733253 89.9248543 -18.87451172 93.36694336 C-23.35397194 98.688366 -27.90571225 103.92057976 -32.60546875 109.05078125 C-34.68652795 111.39145773 -36.64147213 113.80863902 -38.578125 116.26953125 C-37.23115668 119.18628377 -35.69367813 121.5288836 -33.63671875 123.9921875 C-33.05744629 124.69013428 -32.47817383 125.38808105 -31.88134766 126.10717773 C-31.26565918 126.84137939 -30.6499707 127.57558105 -30.015625 128.33203125 C-28.74077291 129.86579191 -27.46603328 131.39964605 -26.19140625 132.93359375 C-25.57088379 133.67770508 -24.95036133 134.42181641 -24.31103516 135.18847656 C-19.43998831 141.03812481 -14.63007407 146.9377921 -9.890625 152.89453125 C-6.170334 157.56166986 -2.37759491 162.16688478 1.421875 166.76953125 C5.76237922 172.02828466 10.07604106 177.30367942 14.3203125 182.640625 C17.0647753 186.07375411 19.83645826 189.48436793 22.609375 192.89453125 C23.16359131 193.57636475 23.71780762 194.25819824 24.28881836 194.96069336 C27.11021705 198.43059627 29.93433157 201.89825633 32.76171875 205.36328125 C38.94338762 212.94538443 45.06017101 220.57149707 51.08203125 228.28125 C53.17813556 230.95824465 55.29254439 233.61893264 57.421875 236.26953125 C57.091875 236.92953125 56.761875 237.58953125 56.421875 238.26953125 C46.6252728 238.61906644 36.8301819 238.88457027 27.02858543 239.04671383 C22.4754562 239.12459395 17.92662897 239.22993766 13.37597656 239.40112305 C-18.49372626 240.56921751 -18.49372626 240.56921751 -26.00048828 235.06152344 C-29.11560702 232.0906761 -31.45018466 228.87424502 -33.52664185 225.11456299 C-35.09807518 222.35717751 -37.13920355 220.04365763 -39.203125 217.64453125 C-39.89664063 216.77570313 -40.59015625 215.906875 -41.3046875 215.01171875 C-43.95154932 211.81911223 -46.74381959 208.79515227 -49.578125 205.76953125 C-54.05735118 200.98643796 -58.26264548 196.06137397 -62.3671875 190.94921875 C-64.6874745 188.1369981 -67.10883634 185.45155862 -69.578125 182.76953125 C-73.67361956 178.32010506 -77.5070621 173.71886413 -81.30078125 169.01171875 C-83.62154678 166.21724636 -86.0435362 163.55559408 -88.515625 160.89453125 C-100.09610601 148.2662064 -110.45374454 135.65717122 -109.8828125 117.609375 C-107.95255446 102.78598315 -96.55720899 91.86138089 -87.15576172 81.08105469 C-84.5536477 78.09317384 -81.97144609 75.0883033 -79.390625 72.08203125 C-78.6478833 71.21976929 -78.6478833 71.21976929 -77.89013672 70.34008789 C-73.91691086 65.71124682 -70.09248212 60.97825623 -66.3203125 56.18359375 C-65.74539063 55.55195313 -65.17046875 54.9203125 -64.578125 54.26953125 C-63.918125 54.26953125 -63.258125 54.26953125 -62.578125 54.26953125 C-62.30427979 53.6780127 -62.03043457 53.08649414 -61.74829102 52.47705078 C-60.61938055 50.3473599 -59.43928173 48.75539168 -57.85546875 46.94921875 C-57.32147461 46.3365918 -56.78748047 45.72396484 -56.23730469 45.09277344 C-55.38507324 44.12839355 -55.38507324 44.12839355 -54.515625 43.14453125 C-53.93071289 42.47583008 -53.34580078 41.80712891 -52.74316406 41.11816406 C-49.47217992 37.3873381 -46.1642842 33.69225873 -42.828125 30.01953125 C-39.85844528 26.7480329 -37.03472945 23.39983553 -34.265625 19.95703125 C-33.55428406 19.10235764 -32.84294312 18.24768402 -32.11004639 17.36711121 C-30.36564156 15.26677462 -28.72756783 13.1163941 -27.11334229 10.91499329 C-19.13273192 0.59011833 -12.61375213 -0.54715433 0 0 Z " fill="#F9FCFD" transform="translate(748.578125,397.73046875)"/>
<path d="M0 0 C1.9375 0.8125 1.9375 0.8125 4 2 C4.495 3.485 4.495 3.485 5 5 C3.31496301 6.68503699 1.23740116 6.11965983 -1.01094055 6.12442017 C-1.72735214 6.12082489 -2.44376373 6.11722961 -3.18188477 6.11352539 C-4.3086412 6.11374443 -4.3086412 6.11374443 -5.4581604 6.1139679 C-7.95260459 6.11326863 -10.44697503 6.10547564 -12.94140625 6.09765625 C-14.66633564 6.09579212 -16.39126557 6.09436819 -18.11619568 6.09336853 C-22.66512503 6.08954297 -27.21402267 6.07971238 -31.76293945 6.06866455 C-36.40120006 6.05845124 -41.03946577 6.05387108 -45.67773438 6.04882812 C-54.78517022 6.03809014 -63.89258248 6.02101327 -73 6 C-73 5.67 -73 5.34 -73 5 C-48.91 4.67 -24.82 4.34 0 4 C0 2.68 0 1.36 0 0 Z " fill="#F9F5F2" transform="translate(801,630)"/>
<path d="M0 0 C0.99 0.33 1.98 0.66 3 1 C4.94716646 1.11675815 6.89793477 1.17669925 8.84838867 1.20532227 C10.0494072 1.22526749 11.25042572 1.24521271 12.48783875 1.26576233 C13.78478165 1.28247482 15.08172455 1.29918732 16.41796875 1.31640625 C17.7589023 1.33698293 19.09982946 1.35797959 20.44075012 1.37937927 C23.96701889 1.43452627 27.49334548 1.48396794 31.01971436 1.53222656 C34.61931493 1.5824955 38.21883173 1.63815339 41.81835938 1.69335938 C48.87883352 1.80085071 55.93938282 1.90231565 63 2 C63 2.33 63 2.66 63 3 C41.88 3 20.76 3 -1 3 C-0.67 2.01 -0.34 1.02 0 0 Z " fill="#F9F4F2" transform="translate(570,633)"/>
<path d="M0 0 C0.66 0 1.32 0 2 0 C3.59412284 3.18824568 3.10174735 6.62896662 3.0625 10.125 C3.05798828 10.87910156 3.05347656 11.63320313 3.04882812 12.41015625 C3.03703499 14.27347127 3.01909942 16.13674555 3 18 C3.66 18.33 4.32 18.66 5 19 C3.68 20.32 2.36 21.64 1 23 C0.67 15.41 0.34 7.82 0 0 Z " fill="#ED2F06" transform="translate(280,398)"/>
</svg>
