<svg width="235" height="50" viewBox="0 0 235 50" fill="none" xmlns="http://www.w3.org/2000/svg">
<path d="M19.5625 49L8.5625 13.1562H8.28125C8.32292 14.0104 8.38542 15.3021 8.46875 17.0312C8.57292 18.7396 8.66667 20.5625 8.75 22.5C8.83333 24.4375 8.875 26.1875 8.875 27.75V49H0.21875V3.3125H13.4062L24.2188 38.25H24.4062L35.875 3.3125H49.0625V49H40.0312V27.375C40.0312 25.9375 40.0521 24.2812 40.0938 22.4062C40.1562 20.5312 40.2292 18.75 40.3125 17.0625C40.3958 15.3542 40.4583 14.0729 40.5 13.2188H40.2188L28.4375 49H19.5625ZM97.3438 49H86.3438L74.375 29.75L70.2812 32.6875V49H60.5938V3.3125H70.2812V24.2188C70.9271 23.3229 71.5625 22.4271 72.1875 21.5312C72.8125 20.6354 73.4479 19.7396 74.0938 18.8438L86.4688 3.3125H97.2188L81.2812 23.5312L97.3438 49Z" fill="#FF4A17"/>
<path d="M159.219 3.3125L147.594 49H136.562L130.375 25C130.25 24.5417 130.083 23.8438 129.875 22.9062C129.667 21.9688 129.448 20.9479 129.219 19.8438C128.99 18.7188 128.781 17.6667 128.594 16.6875C128.427 15.6875 128.312 14.8958 128.25 14.3125C128.188 14.8958 128.062 15.6771 127.875 16.6562C127.708 17.6354 127.51 18.6771 127.281 19.7812C127.073 20.8854 126.865 21.9167 126.656 22.875C126.448 23.8333 126.281 24.5625 126.156 25.0625L120 49H109L97.3438 3.3125H106.875L112.719 28.25C112.885 29 113.073 29.8958 113.281 30.9375C113.51 31.9792 113.729 33.0729 113.938 34.2188C114.167 35.3438 114.365 36.4375 114.531 37.5C114.719 38.5417 114.854 39.4479 114.938 40.2188C115.042 39.4271 115.177 38.5104 115.344 37.4688C115.51 36.4062 115.688 35.3333 115.875 34.25C116.083 33.1458 116.292 32.125 116.5 31.1875C116.708 30.25 116.896 29.4896 117.062 28.9062L123.719 3.3125H132.875L139.531 28.9062C139.677 29.4688 139.844 30.2292 140.031 31.1875C140.24 32.125 140.448 33.1458 140.656 34.25C140.865 35.3542 141.052 36.4375 141.219 37.5C141.406 38.5417 141.542 39.4479 141.625 40.2188C141.771 39.1771 141.969 37.9167 142.219 36.4375C142.49 34.9375 142.771 33.4479 143.062 31.9688C143.375 30.4896 143.646 29.25 143.875 28.25L149.688 3.3125H159.219ZM178.625 13.4062C181.854 13.4062 184.635 14.0312 186.969 15.2812C189.302 16.5104 191.104 18.3021 192.375 20.6562C193.646 23.0104 194.281 25.8854 194.281 29.2812V33.9062H171.75C171.854 36.5938 172.656 38.7083 174.156 40.25C175.677 41.7708 177.781 42.5312 180.469 42.5312C182.698 42.5312 184.74 42.3021 186.594 41.8438C188.448 41.3854 190.354 40.6979 192.312 39.7812V47.1562C190.583 48.0104 188.771 48.6354 186.875 49.0312C185 49.4271 182.719 49.625 180.031 49.625C176.531 49.625 173.427 48.9792 170.719 47.6875C168.031 46.3958 165.917 44.4271 164.375 41.7812C162.854 39.1354 162.094 35.8021 162.094 31.7812C162.094 27.6979 162.781 24.3021 164.156 21.5938C165.552 18.8646 167.49 16.8229 169.969 15.4688C172.448 14.0938 175.333 13.4062 178.625 13.4062ZM178.688 20.1875C176.833 20.1875 175.292 20.7812 174.062 21.9688C172.854 23.1562 172.156 25.0208 171.969 27.5625H185.344C185.323 26.1458 185.062 24.8854 184.562 23.7812C184.083 22.6771 183.354 21.8021 182.375 21.1562C181.417 20.5104 180.188 20.1875 178.688 20.1875ZM211.562 0.375V11.6875C211.562 13 211.521 14.3021 211.438 15.5938C211.375 16.8854 211.292 17.8854 211.188 18.5938H211.562C212.479 17.1562 213.729 15.9375 215.312 14.9375C216.896 13.9167 218.948 13.4062 221.469 13.4062C225.385 13.4062 228.562 14.9375 231 18C233.438 21.0625 234.656 25.5521 234.656 31.4688C234.656 35.4479 234.094 38.7917 232.969 41.5C231.844 44.1875 230.271 46.2188 228.25 47.5938C226.229 48.9479 223.885 49.625 221.219 49.625C218.656 49.625 216.635 49.1667 215.156 48.25C213.677 47.3333 212.479 46.3021 211.562 45.1562H210.906L209.312 49H202.031V0.375H211.562ZM218.406 21.0312C216.74 21.0312 215.417 21.375 214.438 22.0625C213.458 22.75 212.74 23.7812 212.281 25.1562C211.844 26.5312 211.604 28.2708 211.562 30.375V31.4062C211.562 34.8021 212.062 37.4062 213.062 39.2188C214.062 41.0104 215.885 41.9062 218.531 41.9062C220.49 41.9062 222.042 41 223.188 39.1875C224.354 37.375 224.938 34.7604 224.938 31.3438C224.938 27.9271 224.354 25.3542 223.188 23.625C222.021 21.8958 220.427 21.0312 218.406 21.0312Z" fill="#020202"/>
</svg>
